<svg viewBox="-120 -120 240 240" fill="none" xmlns="http://www.w3.org/2000/svg">
  <!--
    Pars Network Logo - White Version (for dark backgrounds)
    Persian 8-Pointed Star (Khatam/Shamseh)
  -->

  <!-- Outer 8-pointed star -->
  <path
    d="M0,-100 L30,-60 L100,-40 L60,0 L100,40 L30,60 L0,100 L-30,60 L-100,40 L-60,0 L-100,-40 L-30,-60 Z"
    fill="none"
    stroke="white"
    stroke-width="4"
    stroke-linejoin="round"
  />

  <!-- Inner star -->
  <path
    d="M0,-70 L22,-42 L70,-28 L42,0 L70,28 L22,42 L0,70 L-22,42 L-70,28 L-42,0 L-70,-28 L-22,-42 Z"
    fill="white"
    fill-opacity="0.15"
    stroke="white"
    stroke-width="3"
    stroke-linejoin="round"
  />

  <!-- Recursive inner star -->
  <path
    d="M0,-45 L14,-27 L45,-18 L27,0 L45,18 L14,27 L0,45 L-14,27 L-45,18 L-27,0 L-45,-18 L-14,-27 Z"
    fill="none"
    stroke="white"
    stroke-width="2"
    stroke-linejoin="round"
    opacity="0.6"
  />

  <!-- Interlaced circles -->
  <g fill="none" stroke="white" stroke-width="1.5" opacity="0.4">
    <circle r="55"/>
    <circle r="35"/>
  </g>

  <!-- Center rosette -->
  <circle r="8" fill="white"/>
  <path
    d="M0,-20 L6,-6 L20,0 L6,6 L0,20 L-6,6 L-20,0 L-6,-6 Z"
    fill="none"
    stroke="white"
    stroke-width="1.5"
    stroke-linejoin="round"
    opacity="0.8"
  />
</svg>
